<mxfile host="app.diagrams.net" modified="2024-01-08T18:24:42.309Z" agent="Mozilla/5.0 (Windows NT 10.0; Win64; x64) AppleWebKit/537.36 (KHTML, like Gecko) Chrome/120.0.0.0 Safari/537.36" etag="N9UVBAUmIN5u8hW3oW5A" version="22.1.17" type="device">
  <diagram name="Page-1" id="dWX6x1xyXY-mT5aRhckN">
    <mxGraphModel dx="1034" dy="420" grid="1" gridSize="10" guides="1" tooltips="1" connect="1" arrows="1" fold="1" page="1" pageScale="1" pageWidth="827" pageHeight="1169" math="0" shadow="0">
      <root>
        <mxCell id="0" />
        <mxCell id="1" parent="0" />
        <mxCell id="5MbxTwnn57qXb6Gi0jye-10" style="edgeStyle=orthogonalEdgeStyle;rounded=0;orthogonalLoop=1;jettySize=auto;html=1;exitX=0.5;exitY=1;exitDx=0;exitDy=0;entryX=0.5;entryY=0;entryDx=0;entryDy=0;" edge="1" parent="1" source="5MbxTwnn57qXb6Gi0jye-1" target="5MbxTwnn57qXb6Gi0jye-2">
          <mxGeometry relative="1" as="geometry" />
        </mxCell>
        <mxCell id="5MbxTwnn57qXb6Gi0jye-14" style="edgeStyle=orthogonalEdgeStyle;rounded=0;orthogonalLoop=1;jettySize=auto;html=1;exitX=0.75;exitY=1;exitDx=0;exitDy=0;entryX=0;entryY=0.5;entryDx=0;entryDy=0;" edge="1" parent="1" source="5MbxTwnn57qXb6Gi0jye-1" target="5MbxTwnn57qXb6Gi0jye-6">
          <mxGeometry relative="1" as="geometry" />
        </mxCell>
        <mxCell id="5MbxTwnn57qXb6Gi0jye-1" value="MCU" style="rounded=0;whiteSpace=wrap;html=1;" vertex="1" parent="1">
          <mxGeometry x="330" y="170" width="120" height="60" as="geometry" />
        </mxCell>
        <mxCell id="5MbxTwnn57qXb6Gi0jye-2" value="Sensors" style="whiteSpace=wrap;html=1;aspect=fixed;" vertex="1" parent="1">
          <mxGeometry x="350" y="310" width="80" height="80" as="geometry" />
        </mxCell>
        <mxCell id="5MbxTwnn57qXb6Gi0jye-11" style="edgeStyle=orthogonalEdgeStyle;rounded=0;orthogonalLoop=1;jettySize=auto;html=1;exitX=0.5;exitY=1;exitDx=0;exitDy=0;entryX=0;entryY=0.5;entryDx=0;entryDy=0;" edge="1" parent="1" source="5MbxTwnn57qXb6Gi0jye-5" target="5MbxTwnn57qXb6Gi0jye-2">
          <mxGeometry relative="1" as="geometry" />
        </mxCell>
        <mxCell id="5MbxTwnn57qXb6Gi0jye-12" style="edgeStyle=orthogonalEdgeStyle;rounded=0;orthogonalLoop=1;jettySize=auto;html=1;exitX=0.5;exitY=0;exitDx=0;exitDy=0;entryX=0.5;entryY=0;entryDx=0;entryDy=0;" edge="1" parent="1" source="5MbxTwnn57qXb6Gi0jye-5" target="5MbxTwnn57qXb6Gi0jye-1">
          <mxGeometry relative="1" as="geometry" />
        </mxCell>
        <mxCell id="5MbxTwnn57qXb6Gi0jye-5" value="Power supply" style="ellipse;whiteSpace=wrap;html=1;" vertex="1" parent="1">
          <mxGeometry x="80" y="190" width="120" height="80" as="geometry" />
        </mxCell>
        <mxCell id="5MbxTwnn57qXb6Gi0jye-15" style="edgeStyle=orthogonalEdgeStyle;rounded=0;orthogonalLoop=1;jettySize=auto;html=1;exitX=1;exitY=0.5;exitDx=0;exitDy=0;entryX=0.5;entryY=1;entryDx=0;entryDy=0;" edge="1" parent="1" source="5MbxTwnn57qXb6Gi0jye-6" target="5MbxTwnn57qXb6Gi0jye-7">
          <mxGeometry relative="1" as="geometry" />
        </mxCell>
        <mxCell id="5MbxTwnn57qXb6Gi0jye-6" value="Ammeter" style="ellipse;whiteSpace=wrap;html=1;aspect=fixed;" vertex="1" parent="1">
          <mxGeometry x="500" y="220" width="80" height="80" as="geometry" />
        </mxCell>
        <mxCell id="5MbxTwnn57qXb6Gi0jye-7" value="Load" style="rounded=0;whiteSpace=wrap;html=1;" vertex="1" parent="1">
          <mxGeometry x="640" y="170" width="120" height="60" as="geometry" />
        </mxCell>
      </root>
    </mxGraphModel>
  </diagram>
</mxfile>
